# xmcd
#
# Track frame offsets:
#	150
#	11155
#	19610
#	32072
#	51135
#	67050
#	79042
#	92252
#	106302
#	117652
#	133475
#	149750
#	164315
#	184432
#	194567
#	203790
#
# Disc length: 2916
#
# Revision: 1
# Processed by: cddbd v1.5.1PL0 Copyright (c) Steve Scherf et al.
# Submitted via: CDex 1.50Beta7
# Normalized: r0:DSETVAR1,TDELIM( - )
#
DISCID=ef0b6210
DTITLE=Various Artist - Stars Of Country
DYEAR=1996
DGENRE=Country
TTITLE0=Faron Young - Wine me up
TTITLE1=Faron Young - Live fast, love hard, die young
TTITLE2=Faron Young - Leavin' and Sayin' goodbye
TTITLE3=Johny Paycheck - Old Violin
TTITLE4=Johny Paycheck - 11 months and 29 days
TTITLE5=Moe Bandy - Another day, another dollar
TTITLE6=Moe Bandy - Bandy the rodeo clown
TTITLE7=Roy Clark - Oh, lonesome me
TTITLE8=Roy Clark - Under the double eagle
TTITLE9=Johny Paycheck - I'm the only hell
TTITLE10=Johny Paycheck - Take this job and shove it
TTITLE11=Moe Bandy - Till I'm to old to die young
TTITLE12=Moe Bandy - Americana
TTITLE13=Faron Young - Goin'steady
TTITLE14=Faron Young - Hello walls
TTITLE15=Faron Young - It's four in the morning
EXTD=YEAR: 1996
EXTT0=
EXTT1=
EXTT2=
EXTT3=
EXTT4=
EXTT5=
EXTT6=
EXTT7=
EXTT8=
EXTT9=
EXTT10=
EXTT11=
EXTT12=
EXTT13=
EXTT14=
EXTT15=
PLAYORDER=
